<svg width="99" height="101" viewBox="0 0 99 101" fill="none" xmlns="http://www.w3.org/2000/svg">
<g id="5">
<path id="path370" fill-rule="evenodd" clip-rule="evenodd" d="M3.96133 99.5798H72.384C73.468 99.5798 74.3453 98.7012 74.3453 97.6185V29.1958C74.3453 28.1118 73.468 27.2344 72.384 27.2344H3.96133C2.87733 27.2344 2 28.1118 2 29.1958V97.6185C2 98.7012 2.87733 99.5798 3.96133 99.5798Z" stroke="#FFCC2A" stroke-width="2.66667"/>
<path id="path372" d="M96.5734 1.13173C96.5734 1.75733 97.0814 2.26507 97.7067 2.26507C98.332 2.26507 98.8387 1.75733 98.8387 1.13173C98.8387 0.5068 98.332 0 97.7067 0C97.0814 0 96.5734 0.5068 96.5734 1.13173Z" fill="#2D415E"/>
<path id="path374" d="M78.828 1.13173C78.828 1.75733 79.336 2.26507 79.9613 2.26507C80.5867 2.26507 81.0933 1.75733 81.0933 1.13173C81.0933 0.5068 80.5867 0 79.9613 0C79.336 0 78.828 0.5068 78.828 1.13173Z" fill="#2D415E"/>
<path id="path376" d="M61.0826 1.13173C61.0826 1.75733 61.5893 2.26507 62.216 2.26507C62.8413 2.26507 63.348 1.75733 63.348 1.13173C63.348 0.5068 62.8413 0 62.216 0C61.5893 0 61.0826 0.5068 61.0826 1.13173Z" fill="#2D415E"/>
<path id="path378" d="M43.3373 1.13173C43.3373 1.75733 43.844 2.26507 44.4693 2.26507C45.096 2.26507 45.6027 1.75733 45.6027 1.13173C45.6027 0.5068 45.096 0 44.4693 0C43.844 0 43.3373 0.5068 43.3373 1.13173Z" fill="#2D415E"/>
<path id="path380" d="M25.592 1.13173C25.592 1.75733 26.0987 2.26507 26.724 2.26507C27.3493 2.26507 27.8573 1.75733 27.8573 1.13173C27.8573 0.5068 27.3493 0 26.724 0C26.0987 0 25.592 0.5068 25.592 1.13173Z" fill="#2D415E"/>
<path id="path382" d="M96.5734 16.9892C96.5734 17.6158 97.0814 18.1225 97.7067 18.1225C98.332 18.1225 98.8387 17.6158 98.8387 16.9892C98.8387 16.3638 98.332 15.8572 97.7067 15.8572C97.0814 15.8572 96.5734 16.3638 96.5734 16.9892Z" fill="#2D415E"/>
<path id="path384" d="M78.828 16.9892C78.828 17.6158 79.336 18.1225 79.9613 18.1225C80.5867 18.1225 81.0933 17.6158 81.0933 16.9892C81.0933 16.3638 80.5867 15.8572 79.9613 15.8572C79.336 15.8572 78.828 16.3638 78.828 16.9892Z" fill="#2D415E"/>
<path id="path386" d="M61.0826 16.9892C61.0826 17.6158 61.5893 18.1225 62.216 18.1225C62.8413 18.1225 63.348 17.6158 63.348 16.9892C63.348 16.3638 62.8413 15.8572 62.216 15.8572C61.5893 15.8572 61.0826 16.3638 61.0826 16.9892Z" fill="#2D415E"/>
<path id="path388" d="M43.3373 16.9892C43.3373 17.6158 43.844 18.1225 44.4693 18.1225C45.096 18.1225 45.6027 17.6158 45.6027 16.9892C45.6027 16.3638 45.096 15.8572 44.4693 15.8572C43.844 15.8572 43.3373 16.3638 43.3373 16.9892Z" fill="#2D415E"/>
<path id="path390" d="M25.592 16.9892C25.592 17.6158 26.0987 18.1225 26.724 18.1225C27.3493 18.1225 27.8573 17.6158 27.8573 16.9892C27.8573 16.3638 27.3493 15.8572 26.724 15.8572C26.0987 15.8572 25.592 16.3638 25.592 16.9892Z" fill="#2D415E"/>
<path id="path392" d="M96.5734 32.8479C96.5734 33.4732 97.0814 33.9799 97.7067 33.9799C98.332 33.9799 98.8387 33.4732 98.8387 32.8479C98.8387 32.2225 98.332 31.7145 97.7067 31.7145C97.0814 31.7145 96.5734 32.2225 96.5734 32.8479Z" fill="#2D415E"/>
<path id="path394" d="M78.828 32.8479C78.828 33.4732 79.336 33.9799 79.9613 33.9799C80.5867 33.9799 81.0933 33.4732 81.0933 32.8479C81.0933 32.2225 80.5867 31.7145 79.9613 31.7145C79.336 31.7145 78.828 32.2225 78.828 32.8479Z" fill="#2D415E"/>
<path id="path396" d="M61.0826 32.8479C61.0826 33.4732 61.5893 33.9799 62.216 33.9799C62.8413 33.9799 63.348 33.4732 63.348 32.8479C63.348 32.2225 62.8413 31.7145 62.216 31.7145C61.5893 31.7145 61.0826 32.2225 61.0826 32.8479Z" fill="#2D415E"/>
<path id="path398" d="M43.3373 32.8479C43.3373 33.4732 43.844 33.9799 44.4693 33.9799C45.096 33.9799 45.6027 33.4732 45.6027 32.8479C45.6027 32.2225 45.096 31.7145 44.4693 31.7145C43.844 31.7145 43.3373 32.2225 43.3373 32.8479Z" fill="#2D415E"/>
<path id="path400" d="M25.592 32.8479C25.592 33.4732 26.0987 33.9799 26.724 33.9799C27.3493 33.9799 27.8573 33.4732 27.8573 32.8479C27.8573 32.2225 27.3493 31.7145 26.724 31.7145C26.0987 31.7145 25.592 32.2225 25.592 32.8479Z" fill="#2D415E"/>
<path id="path402" d="M96.5734 48.7052C96.5734 49.3305 97.0814 49.8372 97.7067 49.8372C98.332 49.8372 98.8387 49.3305 98.8387 48.7052C98.8387 48.0798 98.332 47.5732 97.7067 47.5732C97.0814 47.5732 96.5734 48.0798 96.5734 48.7052Z" fill="#2D415E"/>
<path id="path404" d="M78.828 48.7052C78.828 49.3305 79.336 49.8372 79.9613 49.8372C80.5867 49.8372 81.0933 49.3305 81.0933 48.7052C81.0933 48.0798 80.5867 47.5732 79.9613 47.5732C79.336 47.5732 78.828 48.0798 78.828 48.7052Z" fill="#2D415E"/>
<path id="path406" d="M61.0826 48.7052C61.0826 49.3305 61.5893 49.8372 62.216 49.8372C62.8413 49.8372 63.348 49.3305 63.348 48.7052C63.348 48.0798 62.8413 47.5732 62.216 47.5732C61.5893 47.5732 61.0826 48.0798 61.0826 48.7052Z" fill="#2D415E"/>
<path id="path408" d="M43.3373 48.7052C43.3373 49.3305 43.844 49.8372 44.4693 49.8372C45.096 49.8372 45.6027 49.3305 45.6027 48.7052C45.6027 48.0798 45.096 47.5732 44.4693 47.5732C43.844 47.5732 43.3373 48.0798 43.3373 48.7052Z" fill="#2D415E"/>
<path id="path410" d="M25.592 48.7052C25.592 49.3305 26.0987 49.8372 26.724 49.8372C27.3493 49.8372 27.8573 49.3305 27.8573 48.7052C27.8573 48.0798 27.3493 47.5732 26.724 47.5732C26.0987 47.5732 25.592 48.0798 25.592 48.7052Z" fill="#2D415E"/>
<path id="path412" d="M96.5734 64.5625C96.5734 65.1879 97.0814 65.6959 97.7067 65.6959C98.332 65.6959 98.8387 65.1879 98.8387 64.5625C98.8387 63.9372 98.332 63.4305 97.7067 63.4305C97.0814 63.4305 96.5734 63.9372 96.5734 64.5625Z" fill="#2D415E"/>
<path id="path414" d="M78.828 64.5625C78.828 65.1879 79.336 65.6959 79.9613 65.6959C80.5867 65.6959 81.0933 65.1879 81.0933 64.5625C81.0933 63.9372 80.5867 63.4305 79.9613 63.4305C79.336 63.4305 78.828 63.9372 78.828 64.5625Z" fill="#2D415E"/>
<path id="path416" d="M61.0826 64.5625C61.0826 65.1879 61.5893 65.6959 62.216 65.6959C62.8413 65.6959 63.348 65.1879 63.348 64.5625C63.348 63.9372 62.8413 63.4305 62.216 63.4305C61.5893 63.4305 61.0826 63.9372 61.0826 64.5625Z" fill="#2D415E"/>
<path id="path418" d="M43.3373 64.5625C43.3373 65.1879 43.844 65.6959 44.4693 65.6959C45.096 65.6959 45.6027 65.1879 45.6027 64.5625C45.6027 63.9372 45.096 63.4305 44.4693 63.4305C43.844 63.4305 43.3373 63.9372 43.3373 64.5625Z" fill="#2D415E"/>
<path id="path420" d="M25.592 64.5625C25.592 65.1879 26.0987 65.6959 26.724 65.6959C27.3493 65.6959 27.8573 65.1879 27.8573 64.5625C27.8573 63.9372 27.3493 63.4305 26.724 63.4305C26.0987 63.4305 25.592 63.9372 25.592 64.5625Z" fill="#2D415E"/>
<path id="path422" d="M96.5734 80.4212C96.5734 81.0465 97.0814 81.5532 97.7067 81.5532C98.332 81.5532 98.8387 81.0465 98.8387 80.4212C98.8387 79.7945 98.332 79.2878 97.7067 79.2878C97.0814 79.2878 96.5734 79.7945 96.5734 80.4212Z" fill="#2D415E"/>
<path id="path424" d="M78.828 80.4212C78.828 81.0465 79.336 81.5532 79.9613 81.5532C80.5867 81.5532 81.0933 81.0465 81.0933 80.4212C81.0933 79.7945 80.5867 79.2878 79.9613 79.2878C79.336 79.2878 78.828 79.7945 78.828 80.4212Z" fill="#2D415E"/>
<path id="path426" d="M61.0826 80.4212C61.0826 81.0465 61.5893 81.5532 62.216 81.5532C62.8413 81.5532 63.348 81.0465 63.348 80.4212C63.348 79.7945 62.8413 79.2878 62.216 79.2878C61.5893 79.2878 61.0826 79.7945 61.0826 80.4212Z" fill="#2D415E"/>
<path id="path428" d="M43.3373 80.4212C43.3373 81.0465 43.844 81.5532 44.4693 81.5532C45.096 81.5532 45.6027 81.0465 45.6027 80.4212C45.6027 79.7945 45.096 79.2878 44.4693 79.2878C43.844 79.2878 43.3373 79.7945 43.3373 80.4212Z" fill="#2D415E"/>
<path id="path430" d="M25.592 80.4212C25.592 81.0465 26.0987 81.5532 26.724 81.5532C27.3493 81.5532 27.8573 81.0465 27.8573 80.4212C27.8573 79.7945 27.3493 79.2878 26.724 79.2878C26.0987 79.2878 25.592 79.7945 25.592 80.4212Z" fill="#2D415E"/>
</g>
</svg>
