<svg width="58" height="58" viewBox="0 0 58 58" fill="none" xmlns="http://www.w3.org/2000/svg">
<g id="3">
<circle id="Oval" cx="3.22222" cy="3.22222" r="3.22222" fill="#FFCD00"/>
<circle id="Oval Copy 6" cx="3.22222" cy="16.1111" r="3.22222" fill="#FFCD00"/>
<circle id="Oval Copy 11" cx="3.22222" cy="29.0001" r="3.22222" fill="#FFCD00"/>
<circle id="Oval Copy 16" cx="3.22222" cy="41.8888" r="3.22222" fill="#FFCD00"/>
<circle id="Oval Copy 21" cx="3.22222" cy="54.7778" r="3.22222" fill="#FFCD00"/>
<circle id="Oval Copy 2" cx="16.1111" cy="3.22222" r="3.22222" fill="#FFCD00"/>
<circle id="Oval Copy 7" cx="16.1111" cy="16.1111" r="3.22222" fill="#FFCD00"/>
<circle id="Oval Copy 12" cx="16.1111" cy="29.0001" r="3.22222" fill="#FFCD00"/>
<circle id="Oval Copy 17" cx="16.1111" cy="41.8888" r="3.22222" fill="#FFCD00"/>
<circle id="Oval Copy 22" cx="16.1111" cy="54.7778" r="3.22222" fill="#FFCD00"/>
<circle id="Oval Copy 3" cx="29" cy="3.22222" r="3.22222" fill="#FFCD00"/>
<circle id="Oval Copy 8" cx="29" cy="16.1111" r="3.22222" fill="#FFCD00"/>
<circle id="Oval Copy 13" cx="29" cy="29.0001" r="3.22222" fill="#FFCD00"/>
<circle id="Oval Copy 18" cx="29" cy="41.8888" r="3.22222" fill="#FFCD00"/>
<circle id="Oval Copy 23" cx="29" cy="54.7778" r="3.22222" fill="#FFCD00"/>
<circle id="Oval Copy 4" cx="41.8889" cy="3.22222" r="3.22222" fill="#FFCD00"/>
<circle id="Oval Copy 9" cx="41.8889" cy="16.1111" r="3.22222" fill="#FFCD00"/>
<circle id="Oval Copy 14" cx="41.8889" cy="29.0001" r="3.22222" fill="#FFCD00"/>
<circle id="Oval Copy 19" cx="41.8889" cy="41.8888" r="3.22222" fill="#FFCD00"/>
<circle id="Oval Copy 24" cx="41.8889" cy="54.7778" r="3.22222" fill="#FFCD00"/>
<circle id="Oval Copy 5" cx="54.7778" cy="3.22222" r="3.22222" fill="#FFCD00"/>
<circle id="Oval Copy 10" cx="54.7778" cy="16.1111" r="3.22222" fill="#FFCD00"/>
<circle id="Oval Copy 15" cx="54.7778" cy="29.0001" r="3.22222" fill="#FFCD00"/>
<circle id="Oval Copy 20" cx="54.7778" cy="41.8888" r="3.22222" fill="#FFCD00"/>
<circle id="Oval Copy 25" cx="54.7778" cy="54.7778" r="3.22222" fill="#FFCD00"/>
</g>
</svg>
