<svg width="12" height="9" viewBox="0 0 12 9" fill="none" xmlns="http://www.w3.org/2000/svg">
<path d="M0.239045 0.416667C1.94161 1.68471 4.74739 4.1628 5.62544 4.85839C5.74331 4.95227 5.86974 5 6.00099 5C6.13197 5 6.25818 4.95272 6.37578 4.85928C7.25459 4.16301 10.0319 1.68471 11.7344 0.416667C11.8404 0.33787 12.0668 0.446569 11.981 0.350236C11.7826 0.127634 11.4868 0 11.1698 0H0.832177C0.515191 0 0.219381 0.127634 0.021019 0.350257C-0.0647995 0.446569 0.133043 0.33787 0.239045 0.416667Z" fill="white"/>
<path d="M11.855 1.02474C11.7664 0.980956 11.6621 0.99623 11.5884 1.0631C9.76195 2.70649 7.33341 4.29856 6.6 5C6.18837 5.39439 5.81259 5.39491 5.4 5C4.61827 4.25241 1.90256 2.40434 0.411609 1.06307C0.337383 0.996205 0.232898 0.981453 0.145008 1.02471C0.0566484 1.06827 0 1.16208 0 1.26547V7.93859C0 8.52399 0.448477 9 1.00001 9H11C11.5515 9 12 8.52399 12 7.93859V1.26547C12 1.16208 11.9434 1.06802 11.855 1.02474Z" fill="white"/>
</svg>
