<svg width="21" height="21" viewBox="0 0 21 21" fill="none" xmlns="http://www.w3.org/2000/svg">
<path d="M11.4708 19.952C11.3928 19.9867 11.3145 20.0188 11.236 20.048C11.3145 20.0188 11.3928 19.9867 11.4708 19.952Z" fill="black"/>
<path d="M11.4708 19.9732C11.3925 19.992 11.3143 20.0092 11.236 20.0268C11.3143 20.0092 11.3925 19.992 11.4708 19.9732Z" fill="black"/>
<path d="M11.4708 19.9629C11.3929 19.991 11.3146 20.016 11.236 20.0371C11.3146 20.016 11.3929 19.991 11.4708 19.9629Z" fill="black"/>
<path d="M11.4708 19.9775C11.3928 19.9936 11.3143 20.0084 11.236 20.0225C11.3143 20.0084 11.3928 19.9936 11.4708 19.9775Z" fill="black"/>
<path d="M12.4033 19.9717C12.3688 19.9908 12.3341 20.01 12.2994 20.0283C12.3341 20.01 12.3688 19.9908 12.4033 19.9717Z" fill="black"/>
<path d="M12.4014 18.9697C12.3681 18.9904 12.3348 19.01 12.3014 19.0303C12.3348 19.01 12.3681 18.9904 12.4014 18.9697Z" fill="black"/>
<path d="M12.4014 19.9691C12.3682 19.9898 12.3348 20.0109 12.3014 20.0309C12.3348 20.0109 12.3682 19.9902 12.4014 19.9691Z" fill="black"/>
<path d="M12.4014 19.9717C12.3683 19.9912 12.3349 20.0096 12.3014 20.0283C12.3349 20.0096 12.3683 19.9912 12.4014 19.9717Z" fill="black"/>
<path d="M10.4729 19.9848C10.3947 19.9961 10.3165 20.0063 10.2381 20.0152C10.3165 20.0063 10.3947 19.9961 10.4729 19.9848Z" fill="black"/>
<path d="M20.3347 10C20.3347 4.478 15.866 0 10.3555 0C4.84497 0 0.376282 4.478 0.376282 10C0.376282 15.522 4.84497 20 10.3555 20C10.4141 20 10.4724 19.9988 10.5309 19.9977V12.2131H8.38693V9.70932H10.5309V7.86682C10.5309 5.72998 11.8327 4.56696 13.7348 4.56696C14.6457 4.56696 15.4287 4.63501 15.6569 4.66537V6.89865H14.3453C13.3104 6.89865 13.1101 7.39151 13.1101 8.11462V9.70932H15.5845L15.2619 12.2131H13.1101V19.6136C17.2812 18.4154 20.3347 14.5645 20.3347 10Z" fill="#2D415E"/>
<path d="M10.4729 19.9801C10.3949 19.9973 10.3166 20.0109 10.2381 20.0199C10.3166 20.0109 10.3949 19.9973 10.4729 19.9801Z" fill="black"/>
<path d="M10.4729 19.9947C10.3948 19.9994 10.3164 20.0029 10.2381 20.0053C10.3164 20.0029 10.3948 19.9994 10.4729 19.9947Z" fill="black"/>
</svg>
