<svg width="21" height="20" viewBox="0 0 21 20" fill="none" xmlns="http://www.w3.org/2000/svg">
<path fill-rule="evenodd" clip-rule="evenodd" d="M0.937622 10C0.937622 4.478 5.40631 0 10.9168 0C16.4273 0 20.896 4.478 20.896 10C20.896 15.522 16.4273 20 10.9168 20C5.40631 20 0.937622 15.522 0.937622 10ZM5.5866 15.1172H8.01699V7.79007H5.5866V15.1172ZM6.80187 6.78955H6.78603C5.97047 6.78955 5.443 6.22696 5.443 5.52383C5.443 4.80484 5.98661 4.25781 6.81801 4.25781C7.64941 4.25781 8.16103 4.80484 8.17687 5.52383C8.17687 6.22696 7.64941 6.78955 6.80187 6.78955ZM14.3504 15.1172H16.7805V10.9158C16.7805 8.66531 15.5815 7.6181 13.9825 7.6181C12.6931 7.6181 12.1152 8.32825 11.7922 8.82751V7.79007H9.36199C9.39382 8.47748 9.36199 15.1172 9.36199 15.1172H11.7922V11.0254C11.7922 10.8064 11.8079 10.5876 11.8722 10.4311C12.0479 9.99359 12.4478 9.54041 13.1191 9.54041C13.9985 9.54041 14.3504 10.2122 14.3504 11.1974V15.1172Z" fill="#2D415E"/>
</svg>
