<svg width="12" height="9" viewBox="0 0 12 9" fill="none" xmlns="http://www.w3.org/2000/svg">
<path d="M0.238713 0.659261C1.93891 1.6737 4.7408 3.65616 5.61764 4.21264C5.73535 4.28774 5.8616 4.32593 5.99267 4.32593C6.12346 4.32593 6.2495 4.2881 6.36694 4.21335C7.24453 3.65633 10.0179 1.6737 11.7182 0.659261C11.824 0.596224 12.0501 0.683183 11.9644 0.606117C11.7663 0.428035 11.4709 0.325928 11.1543 0.325928H0.831022C0.514476 0.325928 0.219076 0.428035 0.0209899 0.606134C-0.0647097 0.683183 0.132859 0.596224 0.238713 0.659261Z" fill="#2C2C2C"/>
<path d="M11.8385 1.32535C11.7501 1.28704 11.646 1.30041 11.5723 1.35892C9.74841 2.79689 7.32324 4.18994 6.59085 4.80371C6.17978 5.1488 5.80453 5.14926 5.39251 4.80371C4.61186 4.14957 1.89992 2.5325 0.411038 1.3589C0.336915 1.30039 0.232575 1.28748 0.144807 1.32533C0.0565699 1.36345 0 1.44553 0 1.53599V7.37498C0 7.8872 0.447855 8.30371 0.998621 8.30371H10.9848C11.5355 8.30371 11.9834 7.8872 11.9834 7.37498V1.53599C11.9834 1.44553 11.9268 1.36323 11.8385 1.32535Z" fill="#2C2C2C"/>
</svg>
