<svg width="67" height="54" viewBox="0 0 67 54" fill="none" xmlns="http://www.w3.org/2000/svg">
<rect x="13" y="26.8701" width="38" height="38" rx="5" transform="rotate(-45 13 26.8701)" fill="#FFCD00"/>
<path fill-rule="evenodd" clip-rule="evenodd" d="M8.89024 40.5195V46.3911C8.89024 46.9334 9.54716 47.2046 9.93297 46.8187L15.595 41.1557H23.9473C29.9117 41.1557 34.8855 36.911 36.0221 31.2792H36.3349L41.0585 36.0036C41.3818 36.3269 41.8093 36.5042 42.2472 36.4938C42.4662 36.4938 42.6852 36.4521 42.8937 36.3687C43.5298 36.1079 43.9365 35.4926 43.9365 34.8043V30.3614C48.4723 28.505 51.4545 24.0935 51.4545 19.1396C51.4545 12.444 46.0115 7 39.3172 7H29.3486C23.5615 7 18.7128 11.0778 17.5032 16.5114H12.7692C5.96017 16.5114 0.454544 22.0285 0.454544 28.8283C0.464971 34.2828 3.99983 38.8925 8.89024 40.5195ZM29.3695 9.29443H39.338C44.7706 9.29443 49.1814 13.7164 49.1814 19.1396C49.1814 23.3843 46.4703 27.1388 42.4453 28.4842L41.6633 28.7449V33.365L37.2943 28.9952H36.2619C36.2619 28.9691 36.2646 28.9431 36.2672 28.917C36.2698 28.8909 36.2724 28.8648 36.2724 28.8388C36.2724 22.0285 30.7563 16.5219 23.9577 16.5219H19.8806C21.0381 12.3606 24.844 9.29443 29.3695 9.29443ZM11.7369 23.426C11.1321 23.426 10.6316 23.9162 10.6316 24.5315C10.6316 25.1468 11.1217 25.6474 11.7369 25.637H25.5739C26.1787 25.637 26.6792 25.1468 26.6792 24.5315C26.6792 23.9266 26.1892 23.426 25.5739 23.426H11.7369ZM10.6316 28.8283C10.6316 28.213 11.1321 27.7228 11.7369 27.7228H25.5739C26.1892 27.7228 26.6792 28.2234 26.6792 28.8283C26.6792 29.4437 26.1787 29.9338 25.5739 29.9338H11.7369C11.1217 29.9443 10.6316 29.4437 10.6316 28.8283ZM19.2863 32.0197H11.7369C11.1217 32.0197 10.6316 32.5203 10.6316 33.1252C10.6316 33.7301 11.1217 34.2307 11.7369 34.2307H19.2863C19.8911 34.2307 20.3916 33.7301 20.3916 33.1252C20.3916 32.5203 19.9015 32.0197 19.2863 32.0197Z" fill="#2D415E"/>
</svg>
