<svg width="57" height="54" viewBox="0 0 57 54" fill="none" xmlns="http://www.w3.org/2000/svg">
<rect x="3" y="26.8701" width="38" height="38" rx="5" transform="rotate(-45 3 26.8701)" fill="#FFCD00"/>
<path fill-rule="evenodd" clip-rule="evenodd" d="M20.1667 17.0041C20.1667 22.5234 15.6882 27 10.1667 27C4.64513 27 0.166656 22.5151 0.166656 16.9959C0.166656 11.4766 4.64513 7 10.1667 7C15.6882 7 20.1667 11.4849 20.1667 17.0041ZM6.95474 19.9665C6.8554 20.2975 6.76434 20.6202 6.67328 20.9512C6.55738 21.3897 6.59878 21.4973 7.00441 21.6876C7.54248 21.9524 8.11368 22.0848 8.70142 22.1758C9.165 22.2503 9.17328 22.2751 9.18156 22.7468C9.18984 22.9619 9.18984 23.1771 9.18984 23.3922C9.18984 23.6653 9.32229 23.8225 9.60374 23.8308C9.91831 23.8391 10.2412 23.8391 10.5557 23.8308C10.8206 23.8225 10.9531 23.6818 10.9531 23.417C10.9531 23.3174 10.9549 23.2188 10.9568 23.1204C10.9605 22.9246 10.9641 22.7299 10.9531 22.5317C10.9365 22.2338 11.069 22.0848 11.3587 22.0021C12.0292 21.82 12.5922 21.4642 13.0309 20.9346C14.2395 19.47 13.7759 17.3186 12.0624 16.367C11.5393 16.0818 10.9935 15.8573 10.454 15.6354C10.4299 15.6255 10.4059 15.6156 10.3819 15.6057C10.0508 15.4733 9.73619 15.3161 9.46301 15.0927C8.91666 14.6541 9.02427 13.9508 9.66169 13.6694C9.84381 13.5867 10.0259 13.5619 10.2246 13.5536C10.9696 13.5122 11.6733 13.6529 12.3438 13.9756C12.6749 14.1328 12.7826 14.0832 12.8984 13.7356C12.9936 13.4565 13.0742 13.1726 13.1551 12.8875C13.1798 12.8006 13.2045 12.7137 13.2296 12.6268C13.2958 12.3786 13.213 12.2131 12.9729 12.1055C12.5425 11.9152 12.1037 11.7828 11.6402 11.7083C11.0359 11.6173 11.0359 11.609 11.0359 11.005C11.0359 10.5747 11.0359 10.3596 10.9283 10.252C10.8207 10.1444 10.6055 10.1444 10.1749 10.1444H9.80242C9.40507 10.1609 9.33056 10.2271 9.32229 10.6326V11.1787C9.31413 11.7084 9.31401 11.7084 8.82387 11.8901L8.80076 11.8986C7.55904 12.3455 6.78917 13.1978 6.70639 14.5548C6.63189 15.7547 7.26103 16.5739 8.24613 17.1614C8.67085 17.4138 9.12343 17.5946 9.57627 17.7756C9.77657 17.8556 9.97692 17.9356 10.1749 18.0219C10.4233 18.1295 10.6633 18.2619 10.8786 18.4357C11.4994 18.9487 11.3835 19.801 10.6468 20.1237C10.2577 20.2975 9.83553 20.3389 9.41335 20.2892C8.75109 20.2065 8.12195 20.0327 7.52593 19.7265C7.17825 19.5445 7.07063 19.5859 6.95474 19.9665Z" fill="#2D415E"/>
<path fill-rule="evenodd" clip-rule="evenodd" d="M31.3458 27.7711H32.5331C33.4257 27.7711 34.1498 28.4958 34.1667 29.389V33.3746C34.1667 34.2678 33.4425 34.9925 32.5499 34.9925H31.43C30.7311 37.2676 29.3754 39.3068 27.5397 40.9415C27.5313 40.9499 27.5229 40.9562 27.5145 40.9625C27.506 40.9689 27.4976 40.9752 27.4892 40.9836L27.3124 41.1353C25.6619 42.6267 25.5104 44.371 25.5019 44.8092V46.1237C25.5019 46.6124 25.1062 47 24.6262 47H19.2876C18.7992 47 18.4119 46.604 18.4119 46.1237V44.8681C17.7972 44.9355 17.1825 44.9693 16.5509 44.9693C15.751 44.9693 14.9595 44.9103 14.1848 44.8092V46.1237C14.1848 46.6124 13.789 47 13.309 47H7.98727C7.52415 47 7.14522 46.6377 7.11154 46.1826V46.1742V46.1237V45.7276C7.06944 44.8007 6.78314 42.6604 5.10746 40.933C3.94543 39.7449 3.10338 38.2787 2.52236 37.0232C2.08449 36.1722 1.73925 35.2705 1.5119 34.3352C1.50348 34.3099 1.50348 34.2931 1.50348 34.2931C1.28454 33.3915 1.16666 32.4561 1.16666 31.4955C1.16666 29.7176 1.554 28.0239 2.26974 26.4735C4.33277 28.0576 6.90945 29.0014 9.71348 29.0014C15.4815 29.0014 20.3233 24.9988 21.6201 19.6228C21.8053 18.856 22.2264 18.1651 22.8158 17.6511C23.6747 16.9011 24.9209 16.2355 26.7313 16.0079C27.5397 15.9068 28.0955 16.7916 27.666 17.4826C27.0513 18.4684 26.5208 19.8419 26.9503 21.3502C26.9671 21.4261 26.984 21.5103 26.984 21.5862C29.0301 23.2377 30.5627 25.3696 31.3458 27.7711ZM24.5504 26.7347C24.5504 27.4678 25.1399 28.0576 25.8724 28.0576C26.605 28.0576 27.1945 27.4678 27.1945 26.7347C27.1945 26.0016 26.605 25.4117 25.8724 25.4117C25.1399 25.4117 24.5504 26.0016 24.5504 26.7347Z" fill="#2D415E"/>
</svg>
