<svg width="61" height="54" viewBox="0 0 61 54" fill="none" xmlns="http://www.w3.org/2000/svg">
<rect x="7" y="26.8701" width="38" height="38" rx="5" transform="rotate(-45 7 26.8701)" fill="#FFCD00"/>
<path d="M35.9653 25H31.8851H31.3393C30.1332 25 29.1549 25.8477 29.1549 26.8964V27.102C29.1549 28.1518 30.1332 29 31.3411 29H35.4253H35.9653C37.1738 29 38.1549 28.1482 38.1549 27.102L38.1526 26.8939C38.1549 25.8477 37.1738 25 35.9653 25Z" fill="#2D415E"/>
<path fill-rule="evenodd" clip-rule="evenodd" d="M36.0512 19.7193H35.1244V9.63492C35.1244 8.18555 33.9273 7 32.4632 7H14.9056C13.4421 7 12.2449 8.1861 12.2449 9.63492V16.8701C8.70353 18.8527 5.05084 20.9238 5.04297 20.9288C3.0601 21.7369 0.154922 24.3446 0.154922 30.5022C0.154922 31.0521 0.191455 31.5597 0.242601 32.0501C0.2589 32.1937 0.276885 32.3317 0.296556 32.4703C0.347702 32.8304 0.411774 33.175 0.488211 33.5022C0.499423 33.5498 0.509611 33.5982 0.519759 33.6465C0.534539 33.7167 0.549236 33.7866 0.566897 33.8529C0.66975 34.2314 0.788902 34.5865 0.922667 34.9243C0.982846 35.0738 1.0475 35.2113 1.11303 35.3507L1.1368 35.4013C1.21549 35.5666 1.29474 35.7292 1.3796 35.8811C1.47796 36.0642 1.57632 36.2407 1.68423 36.4082C1.69738 36.428 1.71111 36.447 1.72491 36.466L1.72492 36.466C1.73824 36.4844 1.75163 36.5029 1.7646 36.5223C4.32525 40.3556 9.04918 40.3728 9.04918 40.3728H12.2449V43.3668C12.2449 44.8145 13.4421 46 14.9056 46H32.4626C33.9267 46 35.1238 44.8139 35.1238 43.3668V39.7149H35.5296V39.7127H36.0473C37.2113 39.7127 38.1549 38.7804 38.1527 37.6277L38.1549 37.4006C38.1527 36.2496 37.2113 35.3201 36.049 35.3201H35.5296H32.1242H31.5993C30.437 35.3201 29.4984 36.2518 29.4984 37.4023V37.6333C29.4984 38.781 30.4393 39.7166 31.601 39.7166H33.2725V41.127H14.0957V22.2078C15.0591 21.6028 15.951 21.0206 16.4597 20.6304C16.9119 20.2841 17.3601 19.9501 17.7935 19.6271C19.83 18.1096 21.5407 16.8348 21.8136 15.6595C22.2447 13.8099 20.811 12.2515 18.3239 13.5311C17.5405 13.9341 15.9325 14.8174 14.0957 15.8387V11.1756L33.2725 11.1784V19.7182H32.1242V19.7204H31.6021C30.4393 19.7204 29.4956 20.6521 29.4956 21.806V22.0319C29.4956 23.1852 30.4393 24.1147 31.5993 24.1147H32.1214H35.5268H36.0501C37.2113 24.1147 38.1527 23.183 38.1527 22.0319V21.7998C38.1549 20.6538 37.2141 19.7193 36.0512 19.7193ZM23.6819 42.0521C24.4193 42.0521 25.0139 42.6415 25.0139 43.3701C25.0139 44.1003 24.4187 44.6876 23.6819 44.6876C22.9473 44.6876 22.3538 44.0987 22.3538 43.3701C22.3549 42.6437 22.9501 42.0521 23.6819 42.0521ZM20.8756 9.53696H26.4937C26.6702 9.53696 26.8141 9.39447 26.8141 9.2197C26.8141 9.04103 26.6702 8.89966 26.4937 8.89966H20.8756C20.6991 8.89966 20.553 9.04159 20.553 9.2197C20.553 9.39503 20.6991 9.53696 20.8756 9.53696Z" fill="#2D415E"/>
<path d="M35.9673 31H35.4274H31.342C30.136 31 29.1549 31.8502 29.1549 32.8969V33.1046C29.1549 34.1523 30.1336 35 31.342 35H31.8848H35.4251H35.9661C37.1762 35 38.152 34.1523 38.1549 33.1046V32.8969C38.1544 31.8502 37.1786 31 35.9673 31Z" fill="#2D415E"/>
</svg>
