<svg width="50" height="49" viewBox="0 0 50 49" fill="none" xmlns="http://www.w3.org/2000/svg">
<path fill-rule="evenodd" clip-rule="evenodd" d="M0.92981 24.5C0.92981 10.969 11.8988 0 25.4298 0C38.9608 0 49.9298 10.969 49.9298 24.5C49.9298 38.031 38.9608 49 25.4298 49C11.8988 49 0.92981 38.031 0.92981 24.5ZM24.2156 32.4734L31.1062 25.5828C31.7043 24.9848 31.7043 24.0154 31.1063 23.4173L24.2157 16.5267C23.6178 15.9287 22.6482 15.9287 22.0502 16.5267C21.4522 17.1246 21.4522 18.0942 22.0502 18.6922L27.8581 24.5001L22.0502 30.308C21.0829 31.2753 21.781 32.922 23.1329 32.922C23.5247 32.922 23.9166 32.7724 24.2156 32.4734Z" fill="#C0C2C3"/>
</svg>
