<svg width="11" height="10" viewBox="0 0 11 10" fill="none" xmlns="http://www.w3.org/2000/svg">
<path d="M9.69758 6.56385C9.08534 6.56385 8.4842 6.4681 7.91454 6.27984C7.6354 6.18464 7.29225 6.27198 7.12188 6.44695L5.99749 7.29576C4.6935 6.59969 3.89028 5.79672 3.20372 4.50253L4.02754 3.40742C4.24158 3.19367 4.31835 2.88143 4.22637 2.58846C4.03731 2.01581 3.94127 1.41495 3.94127 0.802448C3.94129 0.359974 3.58132 0 3.13887 0H1.30242C0.859973 0 0.5 0.359974 0.5 0.802422C0.5 5.87404 4.62598 10 9.69758 10C10.14 10 10.5 9.64003 10.5 9.19758V7.36625C10.5 6.92383 10.14 6.56385 9.69758 6.56385Z" fill="white"/>
</svg>
