<svg width="11" height="11" viewBox="0 0 11 11" fill="none" xmlns="http://www.w3.org/2000/svg">
<path d="M9.68275 7.28466C9.07136 7.28466 8.47105 7.19103 7.90218 7.00696C7.62343 6.91386 7.28075 6.99927 7.11062 7.17035L5.98779 8.00029C4.68561 7.31969 3.8835 6.53457 3.19789 5.26913L4.02058 4.19837C4.23431 3.98937 4.31098 3.68407 4.21913 3.39761C4.03033 2.83768 3.93442 2.25017 3.93442 1.65128C3.93444 1.21864 3.57497 0.866665 3.13314 0.866665H1.29923C0.857399 0.866665 0.497925 1.21864 0.497925 1.65126C0.497925 6.61017 4.61818 10.6444 9.68275 10.6444C10.1246 10.6444 10.4841 10.2925 10.4841 9.85985V8.06922C10.484 7.63663 10.1246 7.28466 9.68275 7.28466Z" fill="#2C2C2C"/>
</svg>
