<svg width="50" height="49" viewBox="0 0 50 49" fill="none" xmlns="http://www.w3.org/2000/svg">
<g opacity="0.6">
<path fill-rule="evenodd" clip-rule="evenodd" d="M49.0702 24.5C49.0702 10.969 38.1012 0 24.5702 0C11.0392 0 0.0701904 10.969 0.0701904 24.5C0.0701904 38.031 11.0392 49 24.5702 49C38.1012 49 49.0702 38.031 49.0702 24.5ZM25.7844 32.4734L18.8938 25.5828C18.2957 24.9848 18.2957 24.0154 18.8937 23.4173L25.7843 16.5267C26.3822 15.9287 27.3518 15.9287 27.9498 16.5267C28.5478 17.1246 28.5478 18.0942 27.9498 18.6922L22.1419 24.5001L27.9498 30.308C28.9171 31.2753 28.219 32.922 26.8671 32.922C26.4753 32.922 26.0834 32.7724 25.7844 32.4734Z" fill="#C0C2C3"/>
</g>
</svg>
