<svg width="16" height="15" viewBox="0 0 16 15" fill="none" xmlns="http://www.w3.org/2000/svg">
<path fill-rule="evenodd" clip-rule="evenodd" d="M11.0868 9.66729L15.4442 14.0247C15.5663 14.1467 15.5663 14.3446 15.4443 14.4666L15.0024 14.9085C14.8803 15.0305 14.6825 15.0305 14.5605 14.9085L10.2031 10.5511C9.18273 11.3775 7.88558 11.875 6.47329 11.875C3.19936 11.875 0.535767 9.21146 0.535767 5.93752C0.535767 2.66359 3.19933 0 6.47326 0C9.7472 0 12.4108 2.66359 12.4108 5.93752C12.4108 7.34981 11.9133 8.64696 11.0868 9.66729ZM1.78578 5.93752C1.78578 8.52236 3.88845 10.625 6.47329 10.625C9.05813 10.625 11.1608 8.52236 11.1608 5.93752C11.1608 3.35268 9.05813 1.25001 6.47329 1.25001C3.88845 1.25001 1.78578 3.35268 1.78578 5.93752Z" fill="#2C2C2C"/>
</svg>
