<svg width="21" height="20" viewBox="0 0 21 20" fill="none" xmlns="http://www.w3.org/2000/svg">
<path d="M9.38046 12L12.3742 10L9.38046 8L9.38046 12Z" fill="#2D415E"/>
<path fill-rule="evenodd" clip-rule="evenodd" d="M0.39917 10C0.39917 4.478 4.86785 0 10.3784 0C15.8889 0 20.3576 4.478 20.3576 10C20.3576 15.522 15.8889 20 10.3784 20C4.86785 20 0.39917 15.522 0.39917 10ZM16.3571 13.0162C16.6139 12.0383 16.6139 10.0102 16.6139 10.0102C16.6139 10.0102 16.6242 7.97211 16.3571 6.99417C16.2132 6.45889 15.7921 6.03668 15.2579 5.89264C14.282 5.625 10.3784 5.625 10.3784 5.625C10.3784 5.625 6.47477 5.625 5.49886 5.88242C4.9749 6.02646 4.54337 6.45889 4.39962 6.99417C4.14274 7.97211 4.14274 10 4.14274 10C4.14274 10 4.14274 12.0383 4.39962 13.0058C4.54352 13.5411 4.9647 13.9633 5.49886 14.1074C6.48497 14.375 10.3784 14.375 10.3784 14.375C10.3784 14.375 14.282 14.375 15.2579 14.1176C15.7921 13.9735 16.2132 13.5515 16.3571 13.0162Z" fill="#2D415E"/>
</svg>
